<svg width="315" height="36" viewBox="0 0 315 36" fill="none" xmlns="http://www.w3.org/2000/svg">
<path d="M16.494 23.14C15.626 23.14 14.898 23.014 14.31 22.762C13.7313 22.5007 13.288 22.1647 12.98 21.754C12.6813 21.334 12.5227 20.8953 12.504 20.438C12.504 20.354 12.532 20.284 12.588 20.228C12.644 20.172 12.714 20.144 12.798 20.144H14.044C14.1653 20.144 14.254 20.172 14.31 20.228C14.3753 20.2747 14.4313 20.3353 14.478 20.41C14.534 20.5873 14.6413 20.7647 14.8 20.942C14.9587 21.11 15.1733 21.25 15.444 21.362C15.724 21.474 16.074 21.53 16.494 21.53C17.166 21.53 17.6653 21.418 17.992 21.194C18.328 20.97 18.496 20.6667 18.496 20.284C18.496 20.0133 18.4073 19.7987 18.23 19.64C18.0527 19.472 17.7773 19.3227 17.404 19.192C17.04 19.052 16.5547 18.9073 15.948 18.758C15.248 18.59 14.66 18.3893 14.184 18.156C13.7173 17.9133 13.3627 17.61 13.12 17.246C12.8867 16.882 12.77 16.42 12.77 15.86C12.77 15.3187 12.9147 14.838 13.204 14.418C13.5027 13.998 13.9227 13.6667 14.464 13.424C15.0147 13.1813 15.668 13.06 16.424 13.06C17.0307 13.06 17.5673 13.144 18.034 13.312C18.5007 13.4707 18.888 13.6853 19.196 13.956C19.504 14.2173 19.7373 14.502 19.896 14.81C20.064 15.1087 20.1527 15.4027 20.162 15.692C20.162 15.7667 20.134 15.8367 20.078 15.902C20.0313 15.958 19.9613 15.986 19.868 15.986H18.566C18.4913 15.986 18.4167 15.9673 18.342 15.93C18.2673 15.8927 18.2067 15.8227 18.16 15.72C18.104 15.4307 17.922 15.1833 17.614 14.978C17.306 14.7727 16.9093 14.67 16.424 14.67C15.92 14.67 15.514 14.7633 15.206 14.95C14.898 15.1367 14.744 15.426 14.744 15.818C14.744 16.0793 14.8187 16.2987 14.968 16.476C15.1267 16.644 15.374 16.7933 15.71 16.924C16.0553 17.0547 16.508 17.1947 17.068 17.344C17.8613 17.5213 18.51 17.7267 19.014 17.96C19.518 18.1933 19.8867 18.492 20.12 18.856C20.3533 19.2107 20.47 19.6633 20.47 20.214C20.47 20.83 20.302 21.3573 19.966 21.796C19.6393 22.2253 19.1773 22.5567 18.58 22.79C17.9827 23.0233 17.2873 23.14 16.494 23.14ZM22.9104 23C22.8171 23 22.7378 22.9673 22.6724 22.902C22.6071 22.8367 22.5744 22.7573 22.5744 22.664V13.55C22.5744 13.4473 22.6071 13.3633 22.6724 13.298C22.7378 13.2327 22.8171 13.2 22.9104 13.2H29.0704C29.1731 13.2 29.2571 13.2327 29.3224 13.298C29.3878 13.3633 29.4204 13.4473 29.4204 13.55V14.474C29.4204 14.5673 29.3878 14.6467 29.3224 14.712C29.2571 14.7773 29.1731 14.81 29.0704 14.81H24.4644V17.288H28.7624C28.8651 17.288 28.9491 17.3207 29.0144 17.386C29.0798 17.442 29.1124 17.5213 29.1124 17.624V18.492C29.1124 18.5947 29.0798 18.6787 29.0144 18.744C28.9491 18.8 28.8651 18.828 28.7624 18.828H24.4644V21.39H29.1824C29.2851 21.39 29.3691 21.4227 29.4344 21.488C29.4998 21.5533 29.5324 21.6373 29.5324 21.74V22.664C29.5324 22.7573 29.4998 22.8367 29.4344 22.902C29.3691 22.9673 29.2851 23 29.1824 23H22.9104ZM31.1814 23C31.1067 23 31.0367 22.972 30.9714 22.916C30.9154 22.86 30.8874 22.79 30.8874 22.706C30.8874 22.6687 30.8967 22.6267 30.9154 22.58L34.2894 13.55C34.3174 13.4567 34.3687 13.3773 34.4434 13.312C34.5274 13.2373 34.6394 13.2 34.7794 13.2H36.3054C36.4454 13.2 36.5527 13.2373 36.6274 13.312C36.7021 13.3773 36.7581 13.4567 36.7954 13.55L40.1694 22.58C40.1787 22.6267 40.1834 22.6687 40.1834 22.706C40.1834 22.79 40.1554 22.86 40.0994 22.916C40.0434 22.972 39.9781 23 39.9034 23H38.6854C38.5547 23 38.4567 22.972 38.3914 22.916C38.3354 22.8507 38.2981 22.79 38.2794 22.734L37.6214 21.026H33.4634L32.8054 22.734C32.7867 22.79 32.7447 22.8507 32.6794 22.916C32.6234 22.972 32.5301 23 32.3994 23H31.1814ZM33.9534 19.416H37.1314L35.5354 15.09L33.9534 19.416ZM42.3264 23C42.2331 23 42.1538 22.9673 42.0884 22.902C42.0231 22.8367 41.9904 22.7573 41.9904 22.664V13.55C41.9904 13.4473 42.0231 13.3633 42.0884 13.298C42.1538 13.2327 42.2331 13.2 42.3264 13.2H45.9524C47.0818 13.2 47.9731 13.4613 48.6264 13.984C49.2798 14.5067 49.6064 15.2673 49.6064 16.266C49.6064 16.9567 49.4338 17.5307 49.0884 17.988C48.7524 18.4453 48.2998 18.7767 47.7304 18.982L49.7744 22.552C49.8024 22.608 49.8164 22.6593 49.8164 22.706C49.8164 22.79 49.7838 22.86 49.7184 22.916C49.6624 22.972 49.5971 23 49.5224 23H48.2484C48.0898 23 47.9684 22.958 47.8844 22.874C47.8004 22.79 47.7351 22.706 47.6884 22.622L45.8824 19.304H43.9364V22.664C43.9364 22.7573 43.9038 22.8367 43.8384 22.902C43.7824 22.9673 43.7031 23 43.6004 23H42.3264ZM43.9364 17.722H45.9104C46.4798 17.722 46.9044 17.596 47.1844 17.344C47.4644 17.0827 47.6044 16.7187 47.6044 16.252C47.6044 15.7853 47.4644 15.4213 47.1844 15.16C46.9138 14.8893 46.4891 14.754 45.9104 14.754H43.9364V17.722ZM55.663 23.14C54.795 23.14 54.0577 22.9907 53.451 22.692C52.8537 22.384 52.3963 21.95 52.079 21.39C51.7617 20.8207 51.5843 20.1393 51.547 19.346C51.5377 18.9633 51.533 18.5527 51.533 18.114C51.533 17.6753 51.5377 17.2553 51.547 16.854C51.5843 16.07 51.7617 15.3933 52.079 14.824C52.4057 14.2547 52.8677 13.8207 53.465 13.522C54.0717 13.214 54.8043 13.06 55.663 13.06C56.2977 13.06 56.867 13.144 57.371 13.312C57.875 13.48 58.3043 13.7133 58.659 14.012C59.0137 14.3013 59.289 14.642 59.485 15.034C59.681 15.426 59.7837 15.8507 59.793 16.308C59.8023 16.392 59.7743 16.462 59.709 16.518C59.653 16.574 59.583 16.602 59.499 16.602H58.169C58.0663 16.602 57.9823 16.5787 57.917 16.532C57.8517 16.476 57.805 16.3873 57.777 16.266C57.6277 15.65 57.371 15.23 57.007 15.006C56.643 14.782 56.1903 14.67 55.649 14.67C55.0237 14.67 54.5243 14.8473 54.151 15.202C53.7777 15.5473 53.577 16.1213 53.549 16.924C53.521 17.6893 53.521 18.4733 53.549 19.276C53.577 20.0787 53.7777 20.6573 54.151 21.012C54.5243 21.3573 55.0237 21.53 55.649 21.53C56.1903 21.53 56.643 21.418 57.007 21.194C57.371 20.9607 57.6277 20.5407 57.777 19.934C57.805 19.8033 57.8517 19.7147 57.917 19.668C57.9823 19.6213 58.0663 19.598 58.169 19.598H59.499C59.583 19.598 59.653 19.626 59.709 19.682C59.7743 19.738 59.8023 19.808 59.793 19.892C59.7837 20.3493 59.681 20.774 59.485 21.166C59.289 21.558 59.0137 21.9033 58.659 22.202C58.3043 22.4913 57.875 22.72 57.371 22.888C56.867 23.056 56.2977 23.14 55.663 23.14ZM62.2893 23C62.196 23 62.1167 22.972 62.0513 22.916C61.986 22.8507 61.9533 22.7667 61.9533 22.664V13.55C61.9533 13.4473 61.986 13.3633 62.0513 13.298C62.1167 13.2327 62.196 13.2 62.2893 13.2H63.5633C63.666 13.2 63.7453 13.2327 63.8013 13.298C63.8667 13.3633 63.8993 13.4473 63.8993 13.55V17.162H68.0293V13.55C68.0293 13.4473 68.062 13.3633 68.1273 13.298C68.1927 13.2327 68.272 13.2 68.3653 13.2H69.6253C69.728 13.2 69.812 13.2327 69.8773 13.298C69.9427 13.3633 69.9753 13.4473 69.9753 13.55V22.664C69.9753 22.7573 69.9427 22.8367 69.8773 22.902C69.812 22.9673 69.728 23 69.6253 23H68.3653C68.272 23 68.1927 22.9673 68.1273 22.902C68.062 22.8367 68.0293 22.7573 68.0293 22.664V18.912H63.8993V22.664C63.8993 22.7573 63.8667 22.8367 63.8013 22.902C63.7453 22.9673 63.666 23 63.5633 23H62.2893Z" fill="white"/>
<mask id="mask0_523_296" style="mask-type:alpha" maskUnits="userSpaceOnUse" x="284" y="8" width="20" height="20">
<rect x="284" y="8" width="20" height="20" fill="white"/>
</mask>
<g mask="url(#mask0_523_296)">
<path fill-rule="evenodd" clip-rule="evenodd" d="M295.356 19.363C295.99 18.7284 296.308 17.9664 296.308 17.0769C296.308 16.1875 295.992 15.4267 295.359 14.7945C294.727 14.1623 293.966 13.8462 293.077 13.8462C292.187 13.8462 291.427 14.1623 290.794 14.7945C290.162 15.4267 289.846 16.1875 289.846 17.0769C289.846 17.9664 290.162 18.7272 290.794 19.3594C291.427 19.9916 292.187 20.3077 293.077 20.3077C293.966 20.3077 294.726 19.9928 295.356 19.363ZM300 23.0769C300 23.3269 299.909 23.5433 299.726 23.726C299.543 23.9087 299.327 24 299.077 24C298.817 24 298.601 23.9087 298.428 23.726L295.954 21.2596C295.094 21.8558 294.135 22.1538 293.077 22.1538C292.389 22.1538 291.732 22.0204 291.105 21.7536C290.477 21.4868 289.936 21.1262 289.482 20.6719C289.028 20.2175 288.667 19.6767 288.4 19.0493C288.133 18.4219 288 17.7644 288 17.0769C288 16.3894 288.133 15.732 288.4 15.1046C288.667 14.4772 289.028 13.9363 289.482 13.482C289.936 13.0276 290.477 12.6671 291.105 12.4002C291.732 12.1334 292.389 12 293.077 12C293.764 12 294.422 12.1334 295.049 12.4002C295.677 12.6671 296.218 13.0276 296.672 13.482C297.126 13.9363 297.487 14.4772 297.754 15.1046C298.02 15.732 298.154 16.3894 298.154 17.0769C298.154 18.1346 297.856 19.0937 297.26 19.9543L299.733 22.4279C299.911 22.6058 300 22.8221 300 23.0769Z" fill="white"/>
</g>
<path d="M16 1H299V-1H16V1ZM314 16V20H316V16H314ZM299 35H16V37H299V35ZM1 20V16H-1V20H1ZM16 35C7.71573 35 1 28.2843 1 20H-1C-1 29.3888 6.61116 37 16 37V35ZM314 20C314 28.2843 307.284 35 299 35V37C308.389 37 316 29.3888 316 20H314ZM299 1C307.284 1 314 7.71573 314 16H316C316 6.61116 308.389 -1 299 -1V1ZM16 -1C6.61116 -1 -1 6.61116 -1 16H1C1 7.71573 7.71573 1 16 1V-1Z" fill="white"/>
</svg>
