<svg width="315" height="48" viewBox="0 0 315 48" fill="none" xmlns="http://www.w3.org/2000/svg">
<g clip-path="url(#clip0_0_1336)">
<g filter="url(#filter0_d_0_1336)">
<path fill-rule="evenodd" clip-rule="evenodd" d="M0 4C0 1.79086 1.79086 0 4 0H311C313.209 0 315 1.79086 315 4V44C315 46.2091 313.209 48 311 48H4C1.79086 48 0 46.2091 0 44V4Z" fill="white"/>
<path d="M0.5 4C0.5 2.067 2.067 0.5 4 0.5H311C312.933 0.5 314.5 2.067 314.5 4V44C314.5 45.933 312.933 47.5 311 47.5H4C2.067 47.5 0.5 45.933 0.5 44V4Z" stroke="#E5E7EF"/>
</g>
<path d="M16.508 29.14C15.668 29.14 14.9493 29.014 14.352 28.762C13.7547 28.51 13.302 28.1787 12.994 27.768C12.686 27.3573 12.5227 26.9093 12.504 26.424C12.504 26.3493 12.532 26.284 12.588 26.228C12.644 26.1627 12.714 26.13 12.798 26.13H14.072C14.1747 26.13 14.2587 26.1533 14.324 26.2C14.3893 26.2467 14.45 26.312 14.506 26.396C14.5993 26.7133 14.8093 26.9793 15.136 27.194C15.472 27.4087 15.9293 27.516 16.508 27.516C17.1613 27.516 17.6513 27.4087 17.978 27.194C18.314 26.97 18.482 26.6667 18.482 26.284C18.482 26.032 18.398 25.822 18.23 25.654C18.062 25.486 17.8053 25.3413 17.46 25.22C17.124 25.0893 16.62 24.9353 15.948 24.758C14.8467 24.4967 14.0393 24.1513 13.526 23.722C13.0127 23.2927 12.756 22.6767 12.756 21.874C12.756 21.3327 12.9053 20.852 13.204 20.432C13.5027 20.0027 13.9273 19.6667 14.478 19.424C15.038 19.1813 15.6867 19.06 16.424 19.06C17.1987 19.06 17.866 19.1953 18.426 19.466C18.9953 19.7367 19.4247 20.0773 19.714 20.488C20.0127 20.8893 20.1713 21.2907 20.19 21.692C20.19 21.7667 20.162 21.8367 20.106 21.902C20.05 21.958 19.98 21.986 19.896 21.986H18.566C18.3607 21.986 18.2207 21.902 18.146 21.734C18.0993 21.4353 17.9173 21.188 17.6 20.992C17.2827 20.7867 16.8907 20.684 16.424 20.684C15.9107 20.684 15.5047 20.782 15.206 20.978C14.9167 21.174 14.772 21.4587 14.772 21.832C14.772 22.084 14.8467 22.294 14.996 22.462C15.1453 22.63 15.3787 22.7793 15.696 22.91C16.0133 23.0313 16.4753 23.1713 17.082 23.33C17.9127 23.5167 18.5707 23.7267 19.056 23.96C19.5507 24.1933 19.9147 24.4873 20.148 24.842C20.3813 25.1967 20.498 25.6493 20.498 26.2C20.498 26.8067 20.33 27.334 19.994 27.782C19.6673 28.2207 19.2007 28.5567 18.594 28.79C17.9967 29.0233 17.3013 29.14 16.508 29.14ZM22.9241 29C22.8308 29 22.7514 28.9673 22.6861 28.902C22.6208 28.8367 22.5881 28.7573 22.5881 28.664V19.55C22.5881 19.4473 22.6161 19.3633 22.6721 19.298C22.7374 19.2327 22.8214 19.2 22.9241 19.2H29.0981C29.2008 19.2 29.2848 19.2327 29.3501 19.298C29.4154 19.3633 29.4481 19.4473 29.4481 19.55V20.488C29.4481 20.5907 29.4154 20.6747 29.3501 20.74C29.2848 20.796 29.2008 20.824 29.0981 20.824H24.5061V23.274H28.7901C28.8928 23.274 28.9768 23.3067 29.0421 23.372C29.1074 23.4373 29.1401 23.5213 29.1401 23.624V24.506C29.1401 24.6087 29.1074 24.6927 29.0421 24.758C28.9768 24.814 28.8928 24.842 28.7901 24.842H24.5061V27.376H29.2101C29.3128 27.376 29.3968 27.4087 29.4621 27.474C29.5274 27.53 29.5601 27.6093 29.5601 27.712V28.664C29.5601 28.7667 29.5274 28.8507 29.4621 28.916C29.3968 28.972 29.3128 29 29.2101 29H22.9241ZM31.2088 29C31.1248 29 31.0548 28.972 30.9988 28.916C30.9428 28.86 30.9148 28.79 30.9148 28.706L30.9428 28.58L34.3028 19.55C34.3961 19.3167 34.5641 19.2 34.8068 19.2H36.3468C36.5894 19.2 36.7574 19.3167 36.8508 19.55L40.2108 28.58L40.2388 28.706C40.2388 28.79 40.2061 28.86 40.1408 28.916C40.0848 28.972 40.0194 29 39.9448 29H38.6988C38.5028 29 38.3674 28.9113 38.2928 28.734L37.6488 27.04H33.5048L32.8608 28.734C32.7861 28.9113 32.6508 29 32.4548 29H31.2088ZM33.9948 25.416H37.1588L35.5768 21.104L33.9948 25.416ZM42.3675 29C42.2741 29 42.1948 28.9673 42.1295 28.902C42.0641 28.8367 42.0315 28.7573 42.0315 28.664V19.55C42.0315 19.4473 42.0595 19.3633 42.1155 19.298C42.1808 19.2327 42.2648 19.2 42.3675 19.2H45.9935C47.1415 19.2 48.0375 19.466 48.6815 19.998C49.3348 20.53 49.6615 21.286 49.6615 22.266C49.6615 22.9473 49.4981 23.5213 49.1715 23.988C48.8448 24.4453 48.3875 24.7767 47.7995 24.982L49.8295 28.552C49.8575 28.608 49.8715 28.6593 49.8715 28.706C49.8715 28.79 49.8388 28.86 49.7735 28.916C49.7175 28.972 49.6521 29 49.5775 29H48.2895C48.1401 29 48.0235 28.9673 47.9395 28.902C47.8555 28.8273 47.7808 28.734 47.7155 28.622L45.9235 25.304H44.0055V28.664C44.0055 28.7573 43.9728 28.8367 43.9075 28.902C43.8421 28.9673 43.7581 29 43.6555 29H42.3675ZM45.9515 23.708C46.5115 23.708 46.9315 23.5867 47.2115 23.344C47.4915 23.092 47.6315 22.728 47.6315 22.252C47.6315 21.776 47.4915 21.412 47.2115 21.16C46.9315 20.8987 46.5115 20.768 45.9515 20.768H44.0055V23.708H45.9515ZM55.7177 29.14C54.4297 29.14 53.431 28.8133 52.7217 28.16C52.0217 27.4973 51.6484 26.5593 51.6017 25.346C51.5924 25.094 51.5877 24.6833 51.5877 24.114C51.5877 23.5353 51.5924 23.1153 51.6017 22.854C51.6484 21.6593 52.0264 20.7307 52.7357 20.068C53.445 19.396 54.439 19.06 55.7177 19.06C56.5484 19.06 57.2717 19.2047 57.8877 19.494C58.5037 19.774 58.9797 20.1613 59.3157 20.656C59.661 21.1507 59.843 21.706 59.8617 22.322V22.35C59.8617 22.4247 59.829 22.49 59.7637 22.546C59.7077 22.5927 59.6424 22.616 59.5677 22.616H58.2097C58.0977 22.616 58.0137 22.5927 57.9577 22.546C57.9017 22.49 57.855 22.3967 57.8177 22.266C57.6777 21.6873 57.435 21.2813 57.0897 21.048C56.7444 20.8053 56.287 20.684 55.7177 20.684C54.383 20.684 53.6877 21.4307 53.6317 22.924C53.6224 23.176 53.6177 23.5633 53.6177 24.086C53.6177 24.6087 53.6224 25.0053 53.6317 25.276C53.6877 26.7693 54.383 27.516 55.7177 27.516C56.2777 27.516 56.7304 27.3993 57.0757 27.166C57.4304 26.9233 57.6777 26.5127 57.8177 25.934C57.855 25.8033 57.9017 25.7147 57.9577 25.668C58.0137 25.612 58.0977 25.584 58.2097 25.584H59.5677C59.6517 25.584 59.7217 25.612 59.7777 25.668C59.843 25.724 59.871 25.794 59.8617 25.878C59.843 26.494 59.661 27.0493 59.3157 27.544C58.9797 28.0387 58.5037 28.4307 57.8877 28.72C57.2717 29 56.5484 29.14 55.7177 29.14ZM62.3577 29C62.2644 29 62.185 28.9673 62.1197 28.902C62.0544 28.8367 62.0217 28.7573 62.0217 28.664V19.55C62.0217 19.4473 62.0497 19.3633 62.1057 19.298C62.171 19.2327 62.255 19.2 62.3577 19.2H63.6457C63.7484 19.2 63.8324 19.2327 63.8977 19.298C63.963 19.3633 63.9957 19.4473 63.9957 19.55V23.148H68.0837V19.55C68.0837 19.4473 68.1164 19.3633 68.1817 19.298C68.247 19.2327 68.3264 19.2 68.4197 19.2H69.7217C69.8244 19.2 69.9037 19.2327 69.9597 19.298C70.025 19.3633 70.0577 19.4473 70.0577 19.55V28.664C70.0577 28.7573 70.025 28.8367 69.9597 28.902C69.9037 28.9673 69.8244 29 69.7217 29H68.4197C68.3264 29 68.247 28.9673 68.1817 28.902C68.1164 28.8367 68.0837 28.7573 68.0837 28.664V24.926H63.9957V28.664C63.9957 28.7573 63.963 28.8367 63.8977 28.902C63.8324 28.9673 63.7484 29 63.6457 29H62.3577Z" fill="#A0A0A0"/>
<mask id="mask0_0_1336" style="mask-type:alpha" maskUnits="userSpaceOnUse" x="284" y="14" width="20" height="20">
<rect x="284" y="14" width="20" height="20" fill="white"/>
</mask>
<g mask="url(#mask0_0_1336)">
<path fill-rule="evenodd" clip-rule="evenodd" d="M295.356 25.363C295.99 24.7284 296.308 23.9664 296.308 23.0769C296.308 22.1875 295.992 21.4267 295.359 20.7945C294.727 20.1623 293.966 19.8462 293.077 19.8462C292.187 19.8462 291.427 20.1623 290.794 20.7945C290.162 21.4267 289.846 22.1875 289.846 23.0769C289.846 23.9664 290.162 24.7272 290.794 25.3594C291.427 25.9916 292.187 26.3077 293.077 26.3077C293.966 26.3077 294.726 25.9928 295.356 25.363ZM300 29.0769C300 29.3269 299.909 29.5433 299.726 29.726C299.543 29.9087 299.327 30 299.077 30C298.817 30 298.601 29.9087 298.428 29.726L295.954 27.2596C295.094 27.8558 294.135 28.1538 293.077 28.1538C292.389 28.1538 291.732 28.0204 291.105 27.7536C290.477 27.4868 289.936 27.1262 289.482 26.6719C289.028 26.2175 288.667 25.6767 288.4 25.0493C288.133 24.4219 288 23.7644 288 23.0769C288 22.3894 288.133 21.732 288.4 21.1046C288.667 20.4772 289.028 19.9363 289.482 19.482C289.936 19.0276 290.477 18.6671 291.105 18.4002C291.732 18.1334 292.389 18 293.077 18C293.764 18 294.422 18.1334 295.049 18.4002C295.677 18.6671 296.218 19.0276 296.672 19.482C297.126 19.9363 297.487 20.4772 297.754 21.1046C298.02 21.732 298.154 22.3894 298.154 23.0769C298.154 24.1346 297.856 25.0937 297.26 25.9543L299.733 28.4279C299.911 28.6058 300 28.8221 300 29.0769Z" fill="#A0A0A0"/>
</g>
</g>
<defs>
<filter id="filter0_d_0_1336" x="-8" y="-3" width="331" height="64" filterUnits="userSpaceOnUse" color-interpolation-filters="sRGB">
<feFlood flood-opacity="0" result="BackgroundImageFix"/>
<feColorMatrix in="SourceAlpha" type="matrix" values="0 0 0 0 0 0 0 0 0 0 0 0 0 0 0 0 0 0 127 0" result="hardAlpha"/>
<feOffset dy="5"/>
<feGaussianBlur stdDeviation="4"/>
<feColorMatrix type="matrix" values="0 0 0 0 0.321569 0 0 0 0 0.321569 0 0 0 0 0.321569 0 0 0 0.07 0"/>
<feBlend mode="normal" in2="BackgroundImageFix" result="effect1_dropShadow_0_1336"/>
<feBlend mode="normal" in="SourceGraphic" in2="effect1_dropShadow_0_1336" result="shape"/>
</filter>
<clipPath id="clip0_0_1336">
<rect width="315" height="48" fill="white"/>
</clipPath>
</defs>
</svg>
