<svg width="20" height="20" viewBox="0 0 20 20" fill="none" xmlns="http://www.w3.org/2000/svg">
<path d="M10.0007 9.99984C12.3018 9.99984 14.1673 8.13436 14.1673 5.83317C14.1673 3.53198 12.3018 1.6665 10.0007 1.6665C7.69946 1.6665 5.83398 3.53198 5.83398 5.83317C5.83398 8.13436 7.69946 9.99984 10.0007 9.99984Z" stroke="white" stroke-width="1.5" stroke-linecap="round" stroke-linejoin="round"/>
<path d="M17.1585 18.3333C17.1585 15.1083 13.9501 12.5 10.0001 12.5C6.05013 12.5 2.8418 15.1083 2.8418 18.3333" stroke="white" stroke-width="1.5" stroke-linecap="round" stroke-linejoin="round"/>
<path d="M0 0V-1H-1V0H0ZM20 0H21V-1H20V0ZM20 20V21H21V20H20ZM0 20H-1V21H0V20ZM0 1H20V-1H0V1ZM19 0V20H21V0H19ZM20 19H0V21H20V19ZM1 20V0H-1V20H1Z" fill="white"/>
</svg>
